<svg viewBox="0 0 512 512" xmlns="http://www.w3.org/2000/svg" role="img" aria-label="큐핏">
  <defs>
    <linearGradient id="g" x1="0" y1="0" x2="1" y2="1">
      <stop offset="0" stop-color="#9a8fd8"/>
      <stop offset="0.5" stop-color="#7c9ed4"/>
      <stop offset="1" stop-color="#5cc1bf"/>
    </linearGradient>
    <linearGradient id="gf" x1="0" y1="0" x2="1" y2="1">
      <stop offset="0" stop-color="#cfc7ef"/>
      <stop offset="0.5" stop-color="#bcd0ee"/>
      <stop offset="1" stop-color="#a9e6e2"/>
    </linearGradient>
    <linearGradient id="gold" x1="100" y1="170" x2="410" y2="360" gradientUnits="userSpaceOnUse">
      <stop offset="0" stop-color="#efd07a"/>
      <stop offset="0.5" stop-color="#d6a93f"/>
      <stop offset="1" stop-color="#b07e1c"/>
    </linearGradient>
  </defs>
  <path d="M256 150 C210 80 110 70 70 140 C30 205 55 290 130 350 L256 460 L382 350 C457 290 482 205 442 140 C402 70 302 80 256 150 Z" fill="url(#gf)" stroke="url(#g)" stroke-width="16" stroke-linejoin="round" stroke-linecap="round"/>
  <g stroke="url(#gold)" stroke-linecap="round" stroke-linejoin="round" fill="none">
    <path d="M170 172 Q100 265 170 358" stroke-width="14"/>
    <path d="M170 172 L170 358" stroke-width="7"/>
    <line x1="158" y1="265" x2="392" y2="265" stroke-width="13"/>
  </g>
  <path d="M408 256 c-5 -10 -20 -7 -20 4 c0 9 13 16 20 22 c7 -6 20 -13 20 -22 c0 -11 -15 -14 -20 -4 Z" fill="url(#gold)" transform="rotate(90 408 265)"/>
</svg>
