<svg viewBox="0 0 512 512" xmlns="http://www.w3.org/2000/svg" role="img" aria-label="큐핏">
  <defs>
    <linearGradient id="g" x1="0" y1="0" x2="1" y2="1">
      <stop offset="0" stop-color="#9a8fd8"/>
      <stop offset="0.5" stop-color="#7c9ed4"/>
      <stop offset="1" stop-color="#5cc1bf"/>
    </linearGradient>
    <linearGradient id="gf" x1="0" y1="0" x2="1" y2="1">
      <stop offset="0" stop-color="#cfc7ef"/>
      <stop offset="0.5" stop-color="#bcd0ee"/>
      <stop offset="1" stop-color="#a9e6e2"/>
    </linearGradient>
  </defs>
  <line x1="48" y1="408" x2="411" y2="149" stroke="url(#g)" stroke-width="16" stroke-linecap="round"/>
  <path d="M256 430 C146 358 86 292 86 222 C86 172 124 136 172 136 C208 136 236 158 256 188 C276 158 304 136 340 136 C388 136 426 172 426 222 C426 292 366 358 256 430 Z" fill="url(#gf)" stroke="url(#g)" stroke-width="16" stroke-linejoin="round" stroke-linecap="round"/>
  <g stroke="url(#g)" stroke-width="14" stroke-linecap="round" stroke-linejoin="round" fill="none">
    <path d="M50 431 L59 400 L37 399"/>
    <path d="M76 413 L86 381 L63 380"/>
  </g>
  <path d="M466 110 L453 151 L411 149 L423 109 Z" fill="url(#g)"/>
</svg>
